<svg xmlns="http://www.w3.org/2000/svg" xmlns:xlink="http://www.w3.org/1999/xlink" width="1024" zoomAndPan="magnify" viewBox="0 0 768 767.999994" height="1024" preserveAspectRatio="xMidYMid meet" version="1.0"><defs><g/><clipPath id="8cb6748dbb"><path d="M 31 214 L 328.539062 214 L 328.539062 511.355469 L 31 511.355469 Z M 31 214 " clip-rule="nonzero"/></clipPath><clipPath id="c01476c57b"><path d="M 740 469 L 755.488281 469 L 755.488281 481 L 740 481 Z M 740 469 " clip-rule="nonzero"/></clipPath><clipPath id="9d134e982a"><path d="M 704.488281 459.066406 L 729 459.066406 L 729 487.566406 L 704.488281 487.566406 Z M 704.488281 459.066406 " clip-rule="nonzero"/></clipPath><clipPath id="c5061281a2"><path d="M 719 500 L 746.28125 500 L 746.28125 509 L 719 509 Z M 719 500 " clip-rule="nonzero"/></clipPath><clipPath id="b241a23a4f"><path d="M 591 501 L 614 501 L 614 511.640625 L 591 511.640625 Z M 591 501 " clip-rule="nonzero"/></clipPath><clipPath id="41486db4ff"><path d="M 673 499.640625 L 699 499.640625 L 699 508 L 673 508 Z M 673 499.640625 " clip-rule="nonzero"/></clipPath><clipPath id="c43b1ac23e"><path d="M 506 504 L 530 504 L 530 511.640625 L 506 511.640625 Z M 506 504 " clip-rule="nonzero"/></clipPath><clipPath id="30afe5f458"><path d="M 549 503 L 571 503 L 571 511.640625 L 549 511.640625 Z M 549 503 " clip-rule="nonzero"/></clipPath><clipPath id="52e11a5795"><path d="M 300.78125 503 L 316 503 L 316 510 L 300.78125 510 Z M 300.78125 503 " clip-rule="nonzero"/></clipPath></defs><g clip-path="url(#8cb6748dbb)"><path fill="#000000" d="M 325.929688 392.808594 L 190.605469 281.335938 C 199.765625 273.265625 208.445312 264.714844 216.648438 255.671875 C 217.769531 254.199219 218.714844 252.617188 219.476562 250.933594 C 220.242188 249.246094 220.808594 247.492188 221.175781 245.679688 C 221.542969 243.863281 221.703125 242.027344 221.652344 240.179688 C 221.605469 238.328125 221.351562 236.503906 220.890625 234.710938 C 220.375 232.691406 219.644531 230.753906 218.695312 228.902344 C 217.742188 227.050781 216.597656 225.328125 215.253906 223.734375 C 213.914062 222.140625 212.410156 220.71875 210.746094 219.464844 C 209.082031 218.210938 207.300781 217.160156 205.398438 216.3125 C 204.355469 215.871094 203.285156 215.503906 202.191406 215.214844 C 201.097656 214.921875 199.984375 214.707031 198.863281 214.570312 C 197.738281 214.433594 196.609375 214.375 195.476562 214.398438 C 194.34375 214.417969 193.21875 214.515625 192.097656 214.695312 C 190.980469 214.875 189.878906 215.128906 188.796875 215.460938 C 187.714844 215.792969 186.660156 216.199219 185.632812 216.679688 C 184.605469 217.15625 183.617188 217.707031 182.667969 218.324219 C 181.71875 218.941406 180.816406 219.621094 179.964844 220.367188 C 179.109375 219.625 178.207031 218.945312 177.253906 218.328125 C 176.304688 217.710938 175.316406 217.164062 174.289062 216.6875 C 173.265625 216.207031 172.210938 215.804688 171.128906 215.472656 C 170.042969 215.140625 168.945312 214.886719 167.824219 214.707031 C 166.707031 214.527344 165.582031 214.429688 164.449219 214.40625 C 163.316406 214.386719 162.191406 214.445312 161.066406 214.578125 C 159.941406 214.714844 158.832031 214.929688 157.738281 215.21875 C 156.644531 215.507812 155.574219 215.875 154.53125 216.3125 C 152.628906 217.160156 150.84375 218.210938 149.179688 219.464844 C 147.515625 220.71875 146.015625 222.140625 144.671875 223.734375 C 143.332031 225.328125 142.183594 227.050781 141.234375 228.902344 C 140.28125 230.753906 139.550781 232.691406 139.039062 234.710938 C 138.578125 236.503906 138.320312 238.328125 138.273438 240.179688 C 138.226562 242.027344 138.382812 243.863281 138.753906 245.679688 C 139.121094 247.492188 139.683594 249.246094 140.449219 250.933594 C 141.214844 252.617188 142.15625 254.199219 143.277344 255.671875 C 151.480469 264.714844 160.160156 273.265625 169.320312 281.335938 L 33.996094 392.808594 C 33.640625 393.097656 33.316406 393.421875 33.027344 393.773438 C 32.734375 394.128906 32.484375 394.507812 32.265625 394.914062 C 32.050781 395.316406 31.875 395.738281 31.742188 396.179688 C 31.609375 396.617188 31.519531 397.066406 31.476562 397.523438 C 31.429688 397.976562 31.429688 398.433594 31.472656 398.890625 C 31.519531 399.347656 31.609375 399.796875 31.742188 400.234375 C 31.875 400.671875 32.046875 401.09375 32.265625 401.5 C 32.480469 401.902344 32.734375 402.285156 33.023438 402.636719 C 33.316406 402.992188 33.636719 403.316406 33.992188 403.605469 C 34.347656 403.898438 34.726562 404.152344 35.132812 404.367188 C 35.535156 404.585938 35.957031 404.757812 36.394531 404.894531 C 36.835938 405.027344 37.28125 405.117188 37.738281 405.160156 C 38.195312 405.207031 38.652344 405.207031 39.109375 405.160156 C 39.566406 405.117188 40.011719 405.027344 40.453125 404.894531 C 40.890625 404.761719 41.3125 404.589844 41.71875 404.371094 C 42.121094 404.15625 42.5 403.902344 42.855469 403.613281 L 68.585938 382.40625 L 68.585938 504.332031 C 68.582031 504.792969 68.625 505.246094 68.710938 505.699219 C 68.796875 506.152344 68.929688 506.589844 69.101562 507.015625 C 69.273438 507.441406 69.488281 507.847656 69.742188 508.230469 C 69.996094 508.613281 70.285156 508.96875 70.609375 509.296875 C 70.933594 509.621094 71.285156 509.914062 71.667969 510.171875 C 72.046875 510.425781 72.453125 510.644531 72.875 510.820312 C 73.300781 510.996094 73.738281 511.128906 74.191406 511.21875 C 74.640625 511.3125 75.097656 511.355469 75.554688 511.355469 L 143.210938 511.355469 C 143.667969 511.355469 144.121094 511.308594 144.566406 511.21875 C 145.015625 511.128906 145.449219 510.996094 145.871094 510.824219 C 146.292969 510.648438 146.695312 510.433594 147.074219 510.179688 C 147.453125 509.925781 147.804688 509.636719 148.125 509.316406 C 148.449219 508.992188 148.738281 508.640625 148.992188 508.261719 C 149.246094 507.882812 149.460938 507.480469 149.632812 507.058594 C 149.808594 506.636719 149.941406 506.203125 150.03125 505.757812 C 150.121094 505.308594 150.167969 504.855469 150.167969 504.398438 L 150.167969 445.375 C 150.167969 444.398438 150.214844 443.425781 150.3125 442.453125 C 150.40625 441.484375 150.550781 440.519531 150.738281 439.5625 C 150.929688 438.605469 151.167969 437.660156 151.449219 436.726562 C 151.734375 435.792969 152.0625 434.875 152.4375 433.972656 C 152.808594 433.070312 153.226562 432.191406 153.6875 431.328125 C 154.144531 430.46875 154.648438 429.632812 155.1875 428.820312 C 155.730469 428.011719 156.3125 427.226562 156.929688 426.472656 C 157.550781 425.71875 158.203125 424.996094 158.894531 424.304688 C 159.585938 423.617188 160.308594 422.960938 161.0625 422.34375 C 161.816406 421.722656 162.597656 421.144531 163.410156 420.601562 C 164.222656 420.058594 165.058594 419.558594 165.917969 419.097656 C 166.777344 418.636719 167.660156 418.222656 168.5625 417.847656 C 169.460938 417.472656 170.378906 417.144531 171.3125 416.863281 C 172.246094 416.578125 173.195312 416.34375 174.152344 416.152344 C 175.109375 415.960938 176.070312 415.820312 177.042969 415.722656 C 178.015625 415.628906 178.988281 415.578125 179.964844 415.578125 C 180.9375 415.578125 181.914062 415.628906 182.882812 415.722656 C 183.855469 415.820312 184.820312 415.960938 185.777344 416.152344 C 186.734375 416.34375 187.679688 416.578125 188.613281 416.863281 C 189.546875 417.144531 190.464844 417.472656 191.367188 417.847656 C 192.265625 418.222656 193.148438 418.636719 194.007812 419.097656 C 194.871094 419.558594 195.707031 420.058594 196.515625 420.601562 C 197.328125 421.144531 198.113281 421.722656 198.867188 422.34375 C 199.621094 422.960938 200.34375 423.617188 201.03125 424.304688 C 201.722656 424.996094 202.378906 425.71875 202.996094 426.472656 C 203.613281 427.226562 204.195312 428.011719 204.738281 428.820312 C 205.28125 429.632812 205.78125 430.46875 206.242188 431.328125 C 206.703125 432.191406 207.117188 433.070312 207.492188 433.972656 C 207.863281 434.875 208.191406 435.792969 208.476562 436.726562 C 208.761719 437.660156 208.996094 438.605469 209.1875 439.5625 C 209.378906 440.519531 209.519531 441.484375 209.617188 442.453125 C 209.710938 443.425781 209.757812 444.398438 209.757812 445.375 L 209.757812 504.332031 C 209.761719 504.789062 209.804688 505.242188 209.894531 505.6875 C 209.984375 506.136719 210.117188 506.570312 210.292969 506.992188 C 210.46875 507.414062 210.683594 507.8125 210.9375 508.195312 C 211.191406 508.574219 211.476562 508.925781 211.800781 509.246094 C 212.125 509.570312 212.476562 509.859375 212.855469 510.113281 C 213.234375 510.367188 213.632812 510.582031 214.054688 510.753906 C 214.476562 510.929688 214.910156 511.0625 215.359375 511.152344 C 215.808594 511.242188 216.257812 511.289062 216.714844 511.289062 L 284.371094 511.289062 C 284.828125 511.289062 285.28125 511.242188 285.730469 511.15625 C 286.175781 511.066406 286.613281 510.933594 287.035156 510.757812 C 287.457031 510.585938 287.859375 510.371094 288.238281 510.117188 C 288.617188 509.863281 288.972656 509.574219 289.292969 509.25 C 289.617188 508.929688 289.90625 508.578125 290.160156 508.199219 C 290.414062 507.816406 290.628906 507.417969 290.804688 506.996094 C 290.980469 506.574219 291.113281 506.136719 291.203125 505.691406 C 291.292969 505.242188 291.339844 504.789062 291.339844 504.332031 L 291.339844 382.351562 L 317.070312 403.558594 C 317.425781 403.847656 317.804688 404.101562 318.210938 404.316406 C 318.613281 404.53125 319.035156 404.707031 319.476562 404.839844 C 319.914062 404.972656 320.363281 405.0625 320.816406 405.105469 C 321.273438 405.148438 321.730469 405.148438 322.1875 405.105469 C 322.644531 405.058594 323.089844 404.96875 323.53125 404.835938 C 323.96875 404.703125 324.390625 404.527344 324.792969 404.3125 C 325.199219 404.09375 325.578125 403.839844 325.929688 403.550781 C 326.285156 403.257812 326.609375 402.9375 326.898438 402.582031 C 327.191406 402.226562 327.441406 401.847656 327.660156 401.441406 C 327.875 401.039062 328.050781 400.617188 328.183594 400.179688 C 328.316406 399.738281 328.40625 399.292969 328.449219 398.835938 C 328.496094 398.378906 328.496094 397.921875 328.449219 397.46875 C 328.40625 397.011719 328.316406 396.5625 328.183594 396.125 C 328.050781 395.6875 327.875 395.265625 327.660156 394.859375 C 327.441406 394.457031 327.191406 394.074219 326.898438 393.722656 C 326.609375 393.367188 326.285156 393.042969 325.929688 392.753906 Z M 154.300781 247.164062 C 153.324219 245.855469 152.679688 244.402344 152.371094 242.800781 C 152.066406 241.199219 152.121094 239.609375 152.542969 238.03125 C 152.808594 237.03125 153.179688 236.074219 153.660156 235.160156 C 154.140625 234.242188 154.71875 233.390625 155.394531 232.605469 C 156.066406 231.824219 156.820312 231.121094 157.652344 230.507812 C 158.484375 229.894531 159.375 229.382812 160.324219 228.96875 C 167.390625 225.726562 173.222656 233.722656 174.574219 234.371094 C 174.902344 234.765625 175.269531 235.117188 175.671875 235.429688 C 176.078125 235.742188 176.511719 236.007812 176.976562 236.222656 C 177.441406 236.441406 177.921875 236.605469 178.421875 236.714844 C 178.917969 236.828125 179.425781 236.882812 179.9375 236.882812 C 180.449219 236.882812 180.953125 236.828125 181.453125 236.714844 C 181.953125 236.605469 182.433594 236.441406 182.898438 236.222656 C 183.359375 236.007812 183.792969 235.742188 184.199219 235.429688 C 184.605469 235.117188 184.972656 234.765625 185.296875 234.371094 C 185.378906 234.292969 192.632812 225.796875 199.574219 228.96875 C 200.523438 229.382812 201.414062 229.894531 202.246094 230.507812 C 203.078125 231.121094 203.832031 231.824219 204.507812 232.605469 C 205.179688 233.390625 205.757812 234.242188 206.238281 235.160156 C 206.71875 236.074219 207.089844 237.03125 207.355469 238.03125 C 207.777344 239.609375 207.835938 241.195312 207.527344 242.796875 C 207.222656 244.398438 206.585938 245.855469 205.613281 247.164062 C 197.488281 255.945312 188.9375 264.292969 179.964844 272.203125 C 170.980469 264.296875 162.425781 255.949219 154.300781 247.164062 Z M 277.402344 497.363281 L 223.683594 497.363281 L 223.683594 445.375 C 223.683594 443.945312 223.613281 442.515625 223.472656 441.089844 C 223.332031 439.667969 223.121094 438.253906 222.839844 436.847656 C 222.5625 435.445312 222.214844 434.058594 221.796875 432.6875 C 221.382812 431.320312 220.898438 429.972656 220.351562 428.648438 C 219.800781 427.328125 219.191406 426.035156 218.515625 424.773438 C 217.839844 423.511719 217.105469 422.285156 216.308594 421.09375 C 215.511719 419.90625 214.660156 418.757812 213.753906 417.652344 C 212.84375 416.542969 211.882812 415.484375 210.871094 414.472656 C 209.859375 413.460938 208.800781 412.5 207.691406 411.59375 C 206.585938 410.6875 205.4375 409.835938 204.246094 409.039062 C 203.058594 408.242188 201.832031 407.507812 200.566406 406.835938 C 199.304688 406.160156 198.011719 405.550781 196.691406 405 C 195.367188 404.453125 194.019531 403.972656 192.652344 403.554688 C 191.28125 403.140625 189.894531 402.792969 188.492188 402.515625 C 187.085938 402.234375 185.671875 402.027344 184.246094 401.886719 C 182.824219 401.746094 181.394531 401.675781 179.964844 401.675781 C 178.53125 401.675781 177.105469 401.746094 175.679688 401.886719 C 174.253906 402.027344 172.839844 402.234375 171.4375 402.515625 C 170.03125 402.792969 168.644531 403.140625 167.277344 403.554688 C 165.90625 403.972656 164.558594 404.453125 163.238281 405 C 161.914062 405.546875 160.621094 406.160156 159.359375 406.835938 C 158.097656 407.507812 156.871094 408.242188 155.679688 409.039062 C 154.488281 409.835938 153.339844 410.6875 152.234375 411.59375 C 151.128906 412.5 150.066406 413.460938 149.054688 414.472656 C 148.042969 415.484375 147.082031 416.542969 146.175781 417.652344 C 145.265625 418.757812 144.414062 419.90625 143.617188 421.09375 C 142.820312 422.285156 142.085938 423.511719 141.410156 424.773438 C 140.734375 426.035156 140.125 427.328125 139.578125 428.648438 C 139.027344 429.972656 138.546875 431.320312 138.128906 432.6875 C 137.714844 434.058594 137.367188 435.445312 137.085938 436.847656 C 136.804688 438.253906 136.59375 439.667969 136.453125 441.089844 C 136.3125 442.515625 136.242188 443.945312 136.242188 445.375 L 136.242188 497.363281 L 82.511719 497.363281 L 82.511719 370.886719 L 179.964844 290.601562 L 277.414062 370.886719 Z M 277.402344 497.363281 " fill-opacity="1" fill-rule="nonzero"/></g><g clip-path="url(#c01476c57b)"><path fill="#000000" d="M 755.480469 479.511719 L 755.359375 477.402344 L 747.1875 472.074219 L 747.3125 471.867188 L 743.464844 469.34375 L 740.902344 473.199219 L 744.738281 475.617188 L 745.398438 474.953125 L 753.394531 480.25 L 755.480469 479.511719 " fill-opacity="1" fill-rule="nonzero"/></g><path fill="#000000" d="M 734.230469 465.914062 L 734.304688 465.816406 C 734.40625 465.691406 734.519531 465.589844 734.640625 465.511719 C 734.703125 465.472656 734.769531 465.4375 734.835938 465.410156 C 734.867188 465.390625 734.976562 465.359375 735.160156 465.324219 C 735.542969 465.285156 735.867188 465.382812 736.128906 465.613281 C 736.183594 465.667969 736.234375 465.722656 736.277344 465.777344 C 736.304688 465.804688 736.359375 465.894531 736.4375 466.054688 C 736.488281 466.183594 736.519531 466.328125 736.527344 466.476562 C 736.539062 466.800781 736.441406 467.097656 736.234375 467.367188 C 736.132812 467.488281 736.058594 467.5625 736.015625 467.589844 C 735.957031 467.636719 735.898438 467.679688 735.832031 467.71875 C 735.707031 467.789062 735.570312 467.839844 735.425781 467.867188 C 735.277344 467.894531 735.132812 467.894531 734.992188 467.871094 C 734.839844 467.847656 734.6875 467.789062 734.53125 467.6875 C 734.402344 467.597656 734.300781 467.496094 734.21875 467.378906 C 734.175781 467.324219 734.140625 467.261719 734.109375 467.195312 C 734.046875 467.03125 734.015625 466.925781 734.015625 466.882812 C 734.003906 466.808594 733.996094 466.738281 733.996094 466.664062 C 734.007812 466.480469 734.023438 466.371094 734.039062 466.335938 C 734.078125 466.195312 734.140625 466.050781 734.230469 465.914062 M 732.664062 465.039062 L 732.382812 465.515625 C 732.035156 466.15625 731.804688 466.8125 731.699219 467.480469 C 731.644531 467.8125 731.621094 468.148438 731.628906 468.488281 C 731.59375 468.660156 731.671875 469.171875 731.859375 470.03125 C 731.953125 470.363281 732.074219 470.683594 732.21875 470.988281 C 732.632812 471.722656 732.914062 472.148438 733.0625 472.261719 C 733.519531 472.792969 734.078125 473.25 734.730469 473.625 C 736.355469 474.449219 737.953125 474.59375 739.523438 474.070312 C 740.164062 473.859375 740.757812 473.542969 741.308594 473.113281 C 741.851562 472.742188 742.363281 472.148438 742.851562 471.332031 C 743.601562 470.09375 743.808594 468.648438 743.472656 467.003906 C 743.316406 466.339844 743.050781 465.726562 742.675781 465.15625 C 742.371094 464.628906 741.816406 464.058594 741.003906 463.445312 C 740.367188 463.039062 739.71875 462.753906 739.054688 462.585938 C 738.722656 462.503906 738.386719 462.449219 738.046875 462.425781 C 737.195312 462.421875 736.679688 462.453125 736.503906 462.523438 C 735.65625 462.738281 735.167969 462.898438 735.03125 463.003906 C 734.726562 463.148438 734.433594 463.324219 734.15625 463.523438 C 733.601562 463.921875 733.105469 464.425781 732.664062 465.039062 Z M 732.664062 465.039062 " fill-opacity="1" fill-rule="nonzero"/><path fill="#000000" d="M 745.5 476.21875 L 745.449219 474.171875 C 745.980469 474.421875 746.507812 474.671875 747.039062 474.921875 L 745.5 476.21875 " fill-opacity="1" fill-rule="nonzero"/><path fill="#000000" d="M 746.28125 476.082031 L 746.230469 474.035156 L 747.820312 474.785156 L 746.28125 476.082031 " fill-opacity="1" fill-rule="nonzero"/><path fill="#000000" d="M 746.578125 476.644531 L 746.554688 475.621094 L 746.527344 474.597656 C 747.058594 474.847656 747.589844 475.097656 748.117188 475.347656 C 747.605469 475.777344 747.09375 476.210938 746.578125 476.644531 " fill-opacity="1" fill-rule="nonzero"/><path fill="#000000" d="M 747.320312 476.828125 L 747.269531 474.78125 L 748.859375 475.53125 L 747.320312 476.828125 " fill-opacity="1" fill-rule="nonzero"/><g clip-path="url(#9d134e982a)"><path fill="#000000" d="M 722.042969 466.4375 L 722.058594 466.449219 C 722.28125 466.613281 722.4375 466.773438 722.53125 466.921875 C 722.582031 467.003906 722.628906 467.089844 722.667969 467.179688 C 722.699219 467.21875 722.742188 467.359375 722.796875 467.605469 C 722.867188 468.0625 722.761719 468.496094 722.476562 468.902344 C 722.410156 468.988281 722.339844 469.066406 722.265625 469.132812 C 722.234375 469.175781 722.117188 469.265625 721.910156 469.394531 C 721.738281 469.488281 721.550781 469.550781 721.347656 469.582031 C 721.15625 469.613281 720.96875 469.613281 720.785156 469.582031 C 720.738281 469.582031 720.601562 469.539062 720.378906 469.453125 C 720.289062 469.414062 720.199219 469.367188 720.113281 469.3125 C 719.71875 469.054688 719.46875 468.664062 719.363281 468.144531 C 719.347656 468.042969 719.339844 467.941406 719.339844 467.84375 C 719.359375 467.597656 719.382812 467.449219 719.40625 467.40625 C 719.464844 467.214844 719.554688 467.027344 719.683594 466.84375 C 719.75 466.761719 719.816406 466.683594 719.890625 466.617188 C 720.082031 466.457031 720.199219 466.367188 720.25 466.355469 C 720.417969 466.261719 720.605469 466.199219 720.808594 466.164062 C 721 466.136719 721.191406 466.136719 721.375 466.167969 C 721.421875 466.167969 721.558594 466.210938 721.78125 466.296875 C 721.871094 466.335938 721.957031 466.382812 722.042969 466.4375 M 723.953125 462.757812 L 714.957031 464.582031 L 717.382812 460.3125 L 715.464844 459.230469 L 712.160156 465.054688 L 710.488281 465.484375 L 708.691406 468.503906 L 710.542969 468.105469 L 704.652344 478.476562 L 720.5 487.402344 L 726.289062 477.21875 L 726.914062 478.769531 L 728.640625 475.730469 Z M 723.953125 462.757812 " fill-opacity="1" fill-rule="nonzero"/><path fill="#000000" d="M 723.832031 462.972656 L 728.433594 475.710938 L 726.941406 478.339844 L 726.464844 477.148438 L 726.125 477.125 L 720.429688 487.148438 L 704.910156 478.40625 L 710.707031 468.199219 L 710.503906 467.921875 L 709.070312 468.230469 L 710.609375 465.648438 L 712.195312 465.226562 C 712 465.234375 712.042969 465.207031 712.324219 465.144531 L 715.539062 459.488281 L 717.128906 460.382812 L 714.796875 464.488281 L 714.996094 464.765625 L 723.832031 462.972656 M 724.132812 462.695312 L 723.917969 462.574219 L 715.324219 464.316406 L 717.546875 460.40625 L 717.476562 460.148438 L 715.558594 459.070312 L 715.300781 459.140625 L 712.042969 464.878906 L 710.441406 465.304688 L 710.328125 465.390625 L 708.527344 468.40625 L 708.730469 468.6875 L 710.175781 468.375 L 704.488281 478.382812 L 704.558594 478.636719 L 720.40625 487.566406 L 720.664062 487.496094 L 726.261719 477.648438 L 726.738281 478.839844 L 727.078125 478.863281 L 728.804688 475.820312 L 728.707031 475.90625 L 728.816406 475.667969 Z M 724.132812 462.695312 " fill-opacity="1" fill-rule="nonzero"/></g><path fill="#000000" d="M 720.492188 466.671875 C 720.335938 464.410156 724.183594 462.8125 728.113281 462.546875 C 732.039062 462.277344 736.070312 463.332031 736.226562 465.59375 C 736.382812 467.855469 732.535156 469.453125 728.605469 469.71875 C 724.679688 469.988281 720.648438 468.933594 720.492188 466.671875 M 721.476562 466.605469 C 721.554688 467.765625 724.320312 469.03125 728.539062 468.742188 C 732.757812 468.453125 735.324219 466.824219 735.242188 465.664062 C 735.164062 464.5 732.398438 463.234375 728.179688 463.523438 C 723.960938 463.8125 721.394531 465.441406 721.476562 466.605469 Z M 721.476562 466.605469 " fill-opacity="1" fill-rule="nonzero"/><g clip-path="url(#c5061281a2)"><path fill="#000000" d="M 732.988281 500.953125 C 735.964844 500.953125 738.890625 500.953125 741.867188 500.953125 C 742.6875 500.953125 743.558594 501.007812 744.378906 501.164062 C 744.738281 501.214844 745.203125 501.585938 745.355469 501.902344 C 746.125 503.535156 746.28125 505.21875 745.613281 506.90625 C 745.253906 507.75 744.585938 508.328125 743.714844 508.433594 C 742.6875 508.539062 741.558594 508.589844 740.53125 508.378906 C 734.730469 507.222656 728.828125 506.640625 722.925781 506.167969 C 722.3125 506.117188 721.695312 505.90625 721.078125 505.800781 C 720.464844 505.640625 719.640625 504.589844 719.589844 503.851562 C 719.539062 502.953125 720.359375 501.320312 721.027344 501.113281 C 721.847656 500.902344 722.671875 500.636719 723.492188 500.636719 C 726.671875 500.636719 729.804688 500.796875 732.988281 500.847656 C 732.988281 500.902344 732.988281 500.902344 732.988281 500.953125 Z M 732.988281 500.953125 " fill-opacity="1" fill-rule="nonzero"/></g><g clip-path="url(#b241a23a4f)"><path fill="#000000" d="M 596.617188 511.066406 C 595.28125 510.910156 594.410156 510.855469 593.589844 510.699219 C 592.40625 510.539062 591.535156 509.011719 591.894531 507.695312 C 592.152344 506.640625 592.664062 505.695312 593.589844 505.0625 C 594.101562 504.695312 594.664062 504.324219 595.28125 504.21875 C 600.210938 503.269531 605.085938 501.902344 610.167969 501.953125 C 610.730469 501.953125 611.449219 502.21875 611.910156 502.585938 C 612.988281 503.429688 613.554688 506.117188 612.886719 507.328125 C 612.628906 507.855469 612.167969 508.378906 611.65625 508.75 C 611.140625 509.117188 610.523438 509.328125 609.910156 509.382812 C 605.289062 510.066406 600.722656 510.59375 596.617188 511.066406 Z M 596.617188 511.066406 " fill-opacity="1" fill-rule="nonzero"/></g><g clip-path="url(#41486db4ff)"><path fill="#000000" d="M 684.742188 500.636719 C 686.230469 500.585938 689.15625 500.585938 692.132812 500.003906 C 693.160156 499.792969 694.234375 499.6875 695.261719 499.6875 C 696.136719 499.6875 696.90625 500.058594 697.316406 501.007812 C 697.625 501.796875 697.984375 502.585938 698.1875 503.429688 C 698.597656 505.0625 697.160156 507.0625 695.519531 507.167969 C 695.109375 507.222656 694.648438 507.273438 694.234375 507.273438 C 688.078125 506.90625 681.96875 506.539062 675.8125 506.167969 C 675.398438 506.167969 674.988281 505.90625 674.578125 505.800781 C 673.964844 505.589844 673.398438 504.484375 673.449219 503.640625 C 673.605469 502.269531 674.527344 500.953125 675.605469 500.742188 C 676.425781 500.585938 677.300781 500.375 678.121094 500.375 C 679.867188 500.375 681.558594 500.480469 684.742188 500.636719 Z M 684.742188 500.636719 " fill-opacity="1" fill-rule="nonzero"/></g><g clip-path="url(#c43b1ac23e)"><path fill="#000000" d="M 519.421875 511.066406 C 516.703125 510.910156 513.933594 510.75 511.210938 510.539062 C 510.183594 510.433594 509.109375 510.222656 508.082031 510.015625 C 507.3125 509.855469 506.59375 509.011719 506.4375 508.222656 C 506.285156 507.222656 506.953125 505.800781 507.824219 505.589844 C 509.261719 505.21875 510.699219 504.851562 512.136719 504.796875 C 516.753906 504.746094 521.425781 504.796875 526.042969 504.851562 C 527.328125 504.851562 528.457031 505.746094 528.816406 507.117188 C 528.96875 507.75 529.023438 508.378906 529.074219 509.011719 C 529.175781 510.644531 528.355469 511.59375 526.917969 511.542969 C 524.453125 511.4375 521.9375 511.226562 519.421875 511.066406 Z M 519.421875 511.066406 " fill-opacity="1" fill-rule="nonzero"/></g><path fill="#000000" d="M 476.515625 509.117188 C 474.464844 509.011719 471.898438 508.855469 469.382812 508.695312 C 467.945312 508.589844 466.867188 507.011719 467.074219 505.378906 C 467.175781 504.21875 467.996094 503.21875 468.921875 503.007812 C 469.742188 502.851562 470.5625 502.640625 471.433594 502.691406 C 476.257812 502.953125 481.085938 503.21875 485.910156 503.585938 C 486.679688 503.640625 487.5 504.0625 488.21875 504.429688 C 489.195312 504.957031 489.5 506.328125 488.886719 507.167969 C 488.371094 507.855469 487.808594 508.484375 487.242188 509.171875 C 486.679688 509.910156 485.960938 510.277344 485.035156 510.171875 C 482.367188 509.910156 479.699219 509.539062 476.515625 509.117188 Z M 476.515625 509.117188 " fill-opacity="1" fill-rule="nonzero"/><g clip-path="url(#30afe5f458)"><path fill="#000000" d="M 567.925781 511.382812 C 563.664062 510.171875 559.664062 510.121094 555.660156 510.066406 C 554.222656 510.066406 552.734375 509.804688 551.296875 509.539062 C 550.371094 509.382812 549.601562 508.117188 549.550781 507.0625 C 549.5 506.011719 550.21875 504.796875 551.195312 504.535156 C 552.21875 504.273438 553.246094 503.957031 554.273438 503.902344 C 558.277344 503.851562 562.28125 503.957031 566.335938 504.007812 C 567.925781 504.007812 569.15625 504.796875 570.183594 506.011719 C 570.59375 506.539062 570.902344 507.222656 570.542969 507.800781 C 569.824219 508.90625 569.003906 509.855469 567.925781 511.382812 Z M 567.925781 511.382812 " fill-opacity="1" fill-rule="nonzero"/></g><path fill="#000000" d="M 638.496094 507.484375 C 636.597656 507.484375 634.699219 507.539062 632.75 507.433594 C 631.929688 507.378906 631.105469 507.0625 630.285156 506.800781 C 629.308594 506.484375 628.898438 505.167969 629.257812 504.0625 C 629.722656 502.746094 630.644531 501.847656 631.875 501.425781 C 632.851562 501.113281 633.929688 500.953125 635.007812 500.902344 C 638.601562 500.691406 642.191406 500.53125 645.785156 500.375 C 647.324219 500.320312 648.917969 502.269531 648.660156 504.007812 C 648.609375 504.429688 648.453125 504.851562 648.300781 505.273438 C 647.890625 506.328125 647.222656 507.222656 646.042969 507.273438 C 643.476562 507.328125 640.960938 507.273438 638.394531 507.273438 C 638.496094 507.378906 638.496094 507.433594 638.496094 507.484375 Z M 638.496094 507.484375 " fill-opacity="1" fill-rule="nonzero"/><path fill="#000000" d="M 440.539062 507.484375 C 438.023438 507.378906 435.457031 507.273438 432.941406 507.0625 C 432.324219 507.011719 431.710938 506.800781 431.144531 506.539062 C 430.273438 506.167969 429.964844 505.378906 429.914062 504.429688 C 429.863281 503.585938 430.476562 502.585938 431.195312 502.375 C 432.015625 502.164062 432.839844 501.902344 433.660156 501.796875 C 437.457031 501.480469 441.257812 501.269531 445.003906 500.953125 C 447.003906 500.796875 448.699219 501.636719 450.339844 502.691406 C 451.007812 503.113281 451.316406 504.273438 450.90625 504.957031 C 449.980469 506.539062 448.902344 507.644531 446.902344 507.539062 C 444.796875 507.433594 442.691406 507.484375 440.589844 507.484375 C 440.539062 507.539062 440.539062 507.484375 440.539062 507.484375 Z M 440.539062 507.484375 " fill-opacity="1" fill-rule="nonzero"/><path fill="#000000" d="M 405.738281 508.644531 C 403.839844 508.644531 401.941406 508.644531 400.042969 508.644531 C 398.449219 508.644531 397.476562 507.644531 397.21875 505.800781 C 397.015625 504.21875 398.144531 502.585938 399.527344 502.480469 C 402.042969 502.269531 404.609375 502.113281 407.125 501.847656 C 408.40625 501.742188 409.640625 501.425781 410.871094 501.320312 C 412 501.214844 412.925781 501.902344 413.488281 502.851562 C 414.15625 503.957031 414.464844 505.273438 414.414062 506.589844 C 414.414062 507.0625 413.746094 508.011719 413.285156 508.011719 C 410.769531 508.171875 408.253906 508.277344 405.6875 508.433594 C 405.738281 508.484375 405.738281 508.589844 405.738281 508.644531 Z M 405.738281 508.644531 " fill-opacity="1" fill-rule="nonzero"/><path fill="#000000" d="M 370.222656 508.855469 C 368.527344 508.855469 366.835938 508.855469 365.140625 508.855469 C 364.523438 508.855469 363.910156 508.695312 363.292969 508.589844 C 362.371094 508.433594 361.394531 507.273438 361.394531 506.328125 C 361.34375 505.21875 362.164062 504.007812 363.035156 503.851562 C 364.0625 503.640625 365.089844 503.480469 366.167969 503.375 C 368.886719 503.113281 371.660156 503.007812 374.378906 502.691406 C 375.917969 502.535156 377.304688 502.902344 378.691406 503.429688 C 379.769531 503.851562 380.589844 504.484375 380.742188 505.640625 C 380.847656 506.539062 379.410156 508.277344 378.433594 508.484375 C 377.820312 508.644531 377.203125 508.800781 376.585938 508.800781 C 374.480469 508.855469 372.378906 508.800781 370.222656 508.800781 C 370.222656 508.800781 370.222656 508.855469 370.222656 508.855469 Z M 370.222656 508.855469 " fill-opacity="1" fill-rule="nonzero"/><g clip-path="url(#52e11a5795)"><path fill="#000000" d="M 308.476562 509.011719 C 306.835938 509.222656 305.195312 509.488281 303.550781 509.699219 C 302.679688 509.804688 301.5 508.90625 301.191406 507.90625 C 300.882812 506.851562 300.78125 505.800781 301.550781 504.902344 C 301.804688 504.589844 302.21875 504.324219 302.574219 504.21875 C 306.066406 503.429688 309.609375 503.324219 313.148438 503.796875 C 313.714844 503.851562 314.277344 504.324219 314.792969 504.695312 C 315.511719 505.21875 315.765625 506.0625 315.664062 506.957031 C 315.511719 507.960938 314.382812 509.011719 313.558594 509.011719 C 311.816406 509.011719 310.171875 509.011719 308.476562 509.011719 Z M 308.476562 509.011719 " fill-opacity="1" fill-rule="nonzero"/></g><path fill="#000000" d="M 336.808594 509.644531 C 334.191406 509.488281 332.550781 509.433594 330.855469 509.277344 C 329.574219 509.171875 328.75 507.855469 328.957031 506.433594 C 329.058594 505.800781 329.265625 505.113281 330.035156 505.007812 C 333.320312 504.589844 336.65625 504.113281 339.992188 503.902344 C 341.53125 503.796875 342.609375 505.007812 343.226562 506.484375 C 343.636719 507.539062 343.121094 508.855469 342.097656 508.960938 C 340.042969 509.277344 337.9375 509.488281 336.808594 509.644531 Z M 336.808594 509.644531 " fill-opacity="1" fill-rule="nonzero"/><g fill="#000000" fill-opacity="1"><g transform="translate(300.792409, 497.042076)"><g><path d="M 60.1875 -76.109375 C 56.9375 -76.109375 55.3125 -74.488281 55.3125 -71.25 L 55.3125 -29.640625 L 55.09375 -29.640625 L 55.09375 -27.4375 C 55.09375 -26.257812 54.945312 -25.148438 54.65625 -24.109375 C 53.914062 -20.867188 52.585938 -18.144531 50.671875 -15.9375 C 47.128906 -12.09375 41.890625 -10.023438 34.953125 -9.734375 C 28.765625 -9.585938 24.046875 -11.132812 20.796875 -14.375 C 18.441406 -16.59375 16.820312 -19.617188 15.9375 -23.453125 C 15.632812 -24.628906 15.410156 -25.882812 15.265625 -27.21875 L 15.265625 -29.421875 L 15.046875 -29.421875 L 15.046875 -71.25 C 15.046875 -74.488281 13.425781 -76.109375 10.1875 -76.109375 C 6.9375 -76.109375 5.3125 -74.488281 5.3125 -71.25 L 5.3125 -27.4375 L 5.75 -25.671875 C 6.050781 -22.710938 6.71875 -19.832031 7.75 -17.03125 C 9.070312 -13.195312 11.0625 -10.023438 13.71875 -7.515625 C 18.738281 -2.503906 25.378906 0 33.640625 0 L 35.1875 0 C 45.0625 -0.4375 52.582031 -3.535156 57.75 -9.296875 C 60.113281 -11.953125 61.957031 -15.046875 63.28125 -18.578125 C 64.164062 -21.085938 64.679688 -23.671875 64.828125 -26.328125 L 65.046875 -27.4375 L 65.046875 -71.25 C 65.046875 -74.488281 63.425781 -76.109375 60.1875 -76.109375 Z M 60.1875 -76.109375 "/></g></g></g><g fill="#000000" fill-opacity="1"><g transform="translate(372.476622, 497.042076)"><g><path d="M 6.421875 -5.53125 C 6.421875 -1.84375 8.265625 0 11.953125 0 C 15.347656 0 17.117188 -1.769531 17.265625 -5.3125 L 17.265625 -34.734375 C 19.921875 -39.597656 23.828125 -41.296875 28.984375 -39.828125 C 32.671875 -38.648438 34.515625 -33.5625 34.515625 -24.5625 L 34.515625 -4.875 C 34.515625 -1.914062 35.992188 -0.4375 38.953125 -0.4375 C 41.898438 -0.4375 43.375 -1.914062 43.375 -4.875 L 43.59375 -24.5625 C 45.507812 -39.457031 40.492188 -47.273438 28.546875 -48.015625 C 25.890625 -48.160156 23.457031 -47.863281 21.25 -47.125 C 19.625 -46.53125 18.148438 -45.71875 16.828125 -44.6875 C 15.941406 -47.050781 14.316406 -48.234375 11.953125 -48.234375 C 8.265625 -48.234375 6.421875 -46.390625 6.421875 -42.703125 Z M 6.421875 -5.53125 "/></g></g></g><g fill="#000000" fill-opacity="1"><g transform="translate(422.257325, 497.042076)"><g><path d="M 18.59375 -49.125 C 18.4375 -52.363281 16.738281 -53.984375 13.5 -53.984375 C 10.25 -53.984375 8.625 -52.285156 8.625 -48.890625 L 8.625 -4.875 C 8.625 -1.625 10.25 0 13.5 0 C 16.738281 0 18.4375 -1.625 18.59375 -4.875 Z M 13.71875 -76.328125 C 10.03125 -76.328125 8.1875 -74.484375 8.1875 -70.796875 C 8.1875 -67.253906 10.03125 -65.484375 13.71875 -65.484375 C 17.40625 -65.484375 19.25 -67.253906 19.25 -70.796875 C 19.25 -74.484375 17.40625 -76.328125 13.71875 -76.328125 Z M 13.71875 -76.328125 "/></g></g></g><g fill="#000000" fill-opacity="1"><g transform="translate(448.364539, 497.042076)"><g><path d="M 36.953125 -30.53125 C 33.554688 -30.53125 31.859375 -28.910156 31.859375 -25.671875 L 31.859375 -25 C 32.003906 -23.96875 32.445312 -23.007812 33.1875 -22.125 L 50.21875 -1.984375 C 52.4375 0.515625 54.800781 0.660156 57.3125 -1.546875 C 59.8125 -3.765625 59.957031 -6.125 57.75 -8.625 L 41.15625 -28.328125 C 40.125 -29.796875 38.722656 -30.53125 36.953125 -30.53125 Z M 18.140625 -66.15625 L 39.15625 -66.15625 L 39.15625 -65.9375 L 40.046875 -65.9375 C 40.785156 -65.9375 41.597656 -65.863281 42.484375 -65.71875 C 44.992188 -65.269531 46.835938 -64.382812 48.015625 -63.0625 C 49.484375 -61.726562 50.21875 -59.660156 50.21875 -56.859375 C 50.070312 -49.628906 46.238281 -46.085938 38.71875 -46.234375 L 38.71875 -46.015625 L 18.140625 -46.015625 Z M 8.1875 -40.265625 L 8.1875 -5.3125 C 8.1875 -1.914062 9.882812 -0.21875 13.28125 -0.21875 C 16.519531 -0.21875 18.140625 -1.914062 18.140625 -5.3125 L 18.140625 -36.0625 L 38.71875 -36.0625 L 38.5 -35.84375 L 39.15625 -35.84375 C 53.019531 -35.84375 60.175781 -42.773438 60.625 -56.640625 C 60.625 -59.890625 60.035156 -62.765625 58.859375 -65.265625 C 57.972656 -67.328125 56.789062 -69.097656 55.3125 -70.578125 C 52.65625 -73.085938 49.191406 -74.785156 44.921875 -75.671875 C 43.585938 -75.960938 42.1875 -76.179688 40.71875 -76.328125 L 38.5 -76.328125 L 38.5 -76.109375 L 13.28125 -76.109375 C 9.882812 -76.109375 8.1875 -74.410156 8.1875 -71.015625 Z M 8.1875 -40.265625 "/></g></g></g><g fill="#000000" fill-opacity="1"><g transform="translate(513.411325, 497.042076)"><g><path d="M 18.59375 -22.125 L 19.03125 -27.21875 L 20.140625 -32.96875 C 21.753906 -37.25 24.925781 -39.753906 29.65625 -40.484375 L 32.96875 -40.484375 C 35.03125 -40.046875 36.578125 -38.867188 37.609375 -36.953125 L 38.71875 -34.515625 L 39.390625 -31.640625 L 39.828125 -25.890625 L 39.390625 -20.578125 L 38.28125 -15.046875 C 36.65625 -10.765625 33.484375 -8.253906 28.765625 -7.515625 C 27.585938 -7.367188 26.40625 -7.519531 25.21875 -7.96875 C 21.976562 -8.851562 19.914062 -11.582031 19.03125 -16.15625 Z M 33.625 -0.890625 C 38.050781 -1.921875 41.816406 -4.351562 44.921875 -8.1875 C 48.753906 -12.757812 50.890625 -18.585938 51.328125 -25.671875 L 51.109375 -31.203125 C 50.515625 -36.503906 48.226562 -40.707031 44.25 -43.8125 C 40.851562 -46.46875 36.945312 -47.796875 32.53125 -47.796875 L 31.421875 -48.015625 L 29.65625 -47.796875 C 27.726562 -47.796875 26.101562 -47.570312 24.78125 -47.125 C 20.351562 -45.800781 16.59375 -43.296875 13.5 -39.609375 C 9.664062 -35.035156 7.523438 -29.28125 7.078125 -22.34375 L 7.296875 -16.8125 C 7.742188 -11.5 10.03125 -7.296875 14.15625 -4.203125 C 17.550781 -1.546875 21.460938 -0.144531 25.890625 0 C 28.242188 0.144531 30.820312 -0.148438 33.625 -0.890625 Z M 33.625 -0.890625 "/></g></g></g><g fill="#000000" fill-opacity="1"><g transform="translate(573.14817, 497.042076)"><g><path d="M 18.59375 -22.125 L 19.03125 -27.21875 L 20.140625 -32.96875 C 21.753906 -37.25 24.925781 -39.753906 29.65625 -40.484375 L 32.96875 -40.484375 C 35.03125 -40.046875 36.578125 -38.867188 37.609375 -36.953125 L 38.71875 -34.515625 L 39.390625 -31.640625 L 39.828125 -25.890625 L 39.390625 -20.578125 L 38.28125 -15.046875 C 36.65625 -10.765625 33.484375 -8.253906 28.765625 -7.515625 C 27.585938 -7.367188 26.40625 -7.519531 25.21875 -7.96875 C 21.976562 -8.851562 19.914062 -11.582031 19.03125 -16.15625 Z M 33.625 -0.890625 C 38.050781 -1.921875 41.816406 -4.351562 44.921875 -8.1875 C 48.753906 -12.757812 50.890625 -18.585938 51.328125 -25.671875 L 51.109375 -31.203125 C 50.515625 -36.503906 48.226562 -40.707031 44.25 -43.8125 C 40.851562 -46.46875 36.945312 -47.796875 32.53125 -47.796875 L 31.421875 -48.015625 L 29.65625 -47.796875 C 27.726562 -47.796875 26.101562 -47.570312 24.78125 -47.125 C 20.351562 -45.800781 16.59375 -43.296875 13.5 -39.609375 C 9.664062 -35.035156 7.523438 -29.28125 7.078125 -22.34375 L 7.296875 -16.8125 C 7.742188 -11.5 10.03125 -7.296875 14.15625 -4.203125 C 17.550781 -1.546875 21.460938 -0.144531 25.890625 0 C 28.242188 0.144531 30.820312 -0.148438 33.625 -0.890625 Z M 33.625 -0.890625 "/></g></g></g><g fill="#000000" fill-opacity="1"><g transform="translate(632.885014, 497.042076)"><g><path d="M 43.140625 -48.015625 C 41.367188 -48.160156 39.675781 -47.9375 38.0625 -47.34375 L 37.609375 -47.125 L 35.625 -45.796875 C 34.144531 -44.910156 32.960938 -43.878906 32.078125 -42.703125 C 30.160156 -46.242188 27.429688 -48.015625 23.890625 -48.015625 C 21.679688 -48.015625 19.765625 -47.644531 18.140625 -46.90625 C 16.960938 -46.3125 15.929688 -45.570312 15.046875 -44.6875 C 14.304688 -47.050781 13.050781 -48.234375 11.28125 -48.234375 C 8.476562 -48.234375 7.078125 -46.390625 7.078125 -42.703125 L 7.078125 -5.53125 C 7.078125 -1.84375 8.476562 0 11.28125 0 C 13.789062 0 15.117188 -1.769531 15.265625 -5.3125 L 15.265625 -34.734375 C 17.179688 -39.304688 20.128906 -41.003906 24.109375 -39.828125 C 26.921875 -38.941406 28.328125 -33.851562 28.328125 -24.5625 L 28.328125 -5.09375 C 28.328125 -1.988281 29.429688 -0.4375 31.640625 -0.4375 C 33.847656 -0.4375 34.953125 -1.914062 34.953125 -4.875 L 34.953125 -24.5625 C 35.253906 -27.65625 35.109375 -30.898438 34.515625 -34.296875 L 34.734375 -34.515625 L 34.953125 -35.171875 L 36.0625 -36.953125 C 38.125 -39.898438 40.632812 -40.859375 43.59375 -39.828125 C 46.394531 -38.648438 47.796875 -33.5625 47.796875 -24.5625 L 47.796875 -5.09375 C 47.796875 -1.988281 48.898438 -0.4375 51.109375 -0.4375 C 53.171875 -0.4375 54.273438 -1.914062 54.421875 -4.875 L 54.421875 -24.5625 C 55.898438 -39.457031 52.140625 -47.273438 43.140625 -48.015625 Z M 43.140625 -48.015625 "/></g></g></g></svg>